<svg width="1920" height="920" xmlns="http://www.w3.org/2000/svg"><g><path d="M-149.7353448816125,-154.14928308679126L-158.1618984987684,860.7093592085048L-107.79592755059872,94.8327761808305Z" fill="#81688c" stroke="#81688c"/><path d="M-149.7353448816125,-154.14928308679126L-107.79592755059872,94.8327761808305L96.16786961428951,-59.21530020906911Z" fill="#2e003a" stroke="#2e003a"/><path d="M-149.7353448816125,-154.14928308679126L96.16786961428951,-59.21530020906911L306.45480851577463,-107.85528371876006Z" fill="#2d0a35" stroke="#2d0a35"/><path d="M-149.7353448816125,-154.14928308679126L306.45480851577463,-107.85528371876006L687.6729014948838,-121.1507914605723Z" fill="#462b4e" stroke="#462b4e"/><path d="M-149.7353448816125,-154.14928308679126L687.6729014948838,-121.1507914605723L923.053144372844,-121.83922528697528Z" fill="#5d4d64" stroke="#5d4d64"/><path d="M-149.7353448816125,-154.14928308679126L923.053144372844,-121.83922528697528L1751.1347520393488,-130.1200689969509Z" fill="#7a797a" stroke="#7a797a"/><path d="M-149.7353448816125,-154.14928308679126L1751.1347520393488,-130.1200689969509L2061.0777828866867,-133.64857301982678Z" fill="#536e50" stroke="#536e50"/><path d="M96.16786961428951,-59.21530020906911L-107.79592755059872,94.8327761808305L79.67203701553458,160.34562083583484Z" fill="#631670" stroke="#631670"/><path d="M96.16786961428951,-59.21530020906911L79.67203701553458,160.34562083583484L336.77421529183164,76.82125098243638Z" fill="#782686" stroke="#782686"/><path d="M96.16786961428951,-59.21530020906911L336.77421529183164,76.82125098243638L306.45480851577463,-107.85528371876006Z" fill="#5d246a" stroke="#5d246a"/><path d="M306.45480851577463,-107.85528371876006L336.77421529183164,76.82125098243638L443.62582281145706,-46.47374312457414Z" fill="#6a3a79" stroke="#6a3a79"/><path d="M306.45480851577463,-107.85528371876006L443.62582281145706,-46.47374312457414L687.6729014948838,-121.1507914605723Z" fill="#5f4c6b" stroke="#5f4c6b"/><path d="M443.62582281145706,-46.47374312457414L336.77421529183164,76.82125098243638L504.4564479812674,144.10795739073262Z" fill="#9356a2" stroke="#9356a2"/><path d="M443.62582281145706,-46.47374312457414L504.4564479812674,144.10795739073262L687.6729014948838,-121.1507914605723Z" fill="#875693" stroke="#875693"/><path d="M687.6729014948838,-121.1507914605723L504.4564479812674,144.10795739073262L744.8304880496856,132.19111776760002Z" fill="#a873b1" stroke="#a873b1"/><path d="M687.6729014948838,-121.1507914605723L744.8304880496856,132.19111776760002L913.8346285079674,69.53996102041289Z" fill="#a87baf" stroke="#a87baf"/><path d="M687.6729014948838,-121.1507914605723L913.8346285079674,69.53996102041289L923.053144372844,-121.83922528697528Z" fill="#8a7990" stroke="#8a7990"/><path d="M923.053144372844,-121.83922528697528L913.8346285079674,69.53996102041289L1075.490979884215,-73.22504833849051Z" fill="#897a8d" stroke="#897a8d"/><path d="M923.053144372844,-121.83922528697528L1075.490979884215,-73.22504833849051L1317.8692375803585,-59.04967549817806Z" fill="#69756c" stroke="#69756c"/><path d="M923.053144372844,-121.83922528697528L1317.8692375803585,-59.04967549817806L1751.1347520393488,-130.1200689969509Z" fill="#3c6040" stroke="#3c6040"/><path d="M1075.490979884215,-73.22504833849051L913.8346285079674,69.53996102041289L1063.5936059379476,79.72569996464566Z" fill="#9f80a3" stroke="#9f80a3"/><path d="M1075.490979884215,-73.22504833849051L1063.5936059379476,79.72569996464566L1317.8692375803585,-59.04967549817806Z" fill="#7c7280" stroke="#7c7280"/><path d="M1317.8692375803585,-59.04967549817806L1063.5936059379476,79.72569996464566L1315.2037977419109,96.16796669881188Z" fill="#86788a" stroke="#86788a"/><path d="M1317.8692375803585,-59.04967549817806L1315.2037977419109,96.16796669881188L1512.9600512407333,-38.733134580855335Z" fill="#565960" stroke="#565960"/><path d="M1317.8692375803585,-59.04967549817806L1512.9600512407333,-38.733134580855335L1751.1347520393488,-130.1200689969509Z" fill="#1e432f" stroke="#1e432f"/><path d="M1512.9600512407333,-38.733134580855335L1315.2037977419109,96.16796669881188L1435.5917144349048,141.8462791536598Z" fill="#696775" stroke="#696775"/><path d="M1512.9600512407333,-38.733134580855335L1435.5917144349048,141.8462791536598L1763.4366866100354,109.81288222657307Z" fill="#4f5165" stroke="#4f5165"/><path d="M1512.9600512407333,-38.733134580855335L1763.4366866100354,109.81288222657307L1751.1347520393488,-130.1200689969509Z" fill="#242d38" stroke="#242d38"/><path d="M1751.1347520393488,-130.1200689969509L1763.4366866100354,109.81288222657307L1862.867759881605,91.64557192804972Z" fill="#2f2240" stroke="#2f2240"/><path d="M1751.1347520393488,-130.1200689969509L1862.867759881605,91.64557192804972L1923.0582013828878,-109.18576198903625Z" fill="#13131f" stroke="#13131f"/><path d="M1751.1347520393488,-130.1200689969509L1923.0582013828878,-109.18576198903625L2061.0777828866867,-133.64857301982678Z" fill="#000900" stroke="#000900"/><path d="M1923.0582013828878,-109.18576198903625L1862.867759881605,91.64557192804972L2084.4762712998468,96.89890892884435Z" fill="#310b37" stroke="#310b37"/><path d="M1923.0582013828878,-109.18576198903625L2084.4762712998468,96.89890892884435L2061.0777828866867,-133.64857301982678Z" fill="#130019" stroke="#130019"/><path d="M2061.0777828866867,-133.64857301982678L2084.4762712998468,96.89890892884435L2111.3610421969993,303.735851613847Z" fill="#481c50" stroke="#481c50"/><path d="M-107.79592755059872,94.8327761808305L-158.1618984987684,860.7093592085048L-88.44180728772474,442.0825767878902Z" fill="#8d8091" stroke="#8d8091"/><path d="M-107.79592755059872,94.8327761808305L-88.44180728772474,442.0825767878902L-60.85288887271166,313.9948140175559Z" fill="#8b6e95" stroke="#8b6e95"/><path d="M-107.79592755059872,94.8327761808305L-60.85288887271166,313.9948140175559L45.101946119436164,265.71630508145415Z" fill="#865994" stroke="#865994"/><path d="M-107.79592755059872,94.8327761808305L45.101946119436164,265.71630508145415L79.67203701553458,160.34562083583484Z" fill="#7e468e" stroke="#7e468e"/><path d="M79.67203701553458,160.34562083583484L45.101946119436164,265.71630508145415L264.44696359611135,313.9388843475904Z" fill="#a771b5" stroke="#a771b5"/><path d="M79.67203701553458,160.34562083583484L264.44696359611135,313.9388843475904L336.77421529183164,76.82125098243638Z" fill="#a169b2" stroke="#a169b2"/><path d="M336.77421529183164,76.82125098243638L264.44696359611135,313.9388843475904L504.4564479812674,144.10795739073262Z" fill="#ad82c1" stroke="#ad82c1"/><path d="M504.4564479812674,144.10795739073262L264.44696359611135,313.9388843475904L535.2871727147235,313.89260041127636Z" fill="#cbaadb" stroke="#cbaadb"/><path d="M504.4564479812674,144.10795739073262L535.2871727147235,313.89260041127636L675.2515523809335,278.06455319191844Z" fill="#d8bae5" stroke="#d8bae5"/><path d="M504.4564479812674,144.10795739073262L675.2515523809335,278.06455319191844L744.8304880496856,132.19111776760002Z" fill="#ceacdb" stroke="#ceacdb"/><path d="M744.8304880496856,132.19111776760002L675.2515523809335,278.06455319191844L873.9923550712546,360.8286881212792Z" fill="#ebd5f3" stroke="#ebd5f3"/><path d="M744.8304880496856,132.19111776760002L873.9923550712546,360.8286881212792L913.8346285079674,69.53996102041289Z" fill="#dbc3e6" stroke="#dbc3e6"/><path d="M913.8346285079674,69.53996102041289L873.9923550712546,360.8286881212792L1063.5936059379476,79.72569996464566Z" fill="#d1beda" stroke="#d1beda"/><path d="M1063.5936059379476,79.72569996464566L873.9923550712546,360.8286881212792L1146.082408136808,323.56023080396784Z" fill="#e2dde7" stroke="#e2dde7"/><path d="M1063.5936059379476,79.72569996464566L1146.082408136808,323.56023080396784L1242.723153826136,294.9206695606849Z" fill="#ccced2" stroke="#ccced2"/><path d="M1063.5936059379476,79.72569996464566L1242.723153826136,294.9206695606849L1315.2037977419109,96.16796669881188Z" fill="#aeacb5" stroke="#aeacb5"/><path d="M1315.2037977419109,96.16796669881188L1242.723153826136,294.9206695606849L1435.5917144349048,141.8462791536598Z" fill="#99a6a5" stroke="#99a6a5"/><path d="M1435.5917144349048,141.8462791536598L1242.723153826136,294.9206695606849L1485.0603282366772,335.28118107357506Z" fill="#a4bdae" stroke="#a4bdae"/><path d="M1435.5917144349048,141.8462791536598L1485.0603282366772,335.28118107357506L1703.733122885371,278.0152291416549Z" fill="#87a49b" stroke="#87a49b"/><path d="M1435.5917144349048,141.8462791536598L1703.733122885371,278.0152291416549L1763.4366866100354,109.81288222657307Z" fill="#66797f" stroke="#66797f"/><path d="M1763.4366866100354,109.81288222657307L1703.733122885371,278.0152291416549L1856.8859366439772,263.2924672753589Z" fill="#6a737e" stroke="#6a737e"/><path d="M1763.4366866100354,109.81288222657307L1856.8859366439772,263.2924672753589L1862.867759881605,91.64557192804972Z" fill="#58526a" stroke="#58526a"/><path d="M1862.867759881605,91.64557192804972L1856.8859366439772,263.2924672753589L2084.4762712998468,96.89890892884435Z" fill="#574061" stroke="#574061"/><path d="M2084.4762712998468,96.89890892884435L1856.8859366439772,263.2924672753589L2111.3610421969993,303.735851613847Z" fill="#6b5774" stroke="#6b5774"/><path d="M-60.85288887271166,313.9948140175559L-88.44180728772474,442.0825767878902L45.6670051341285,492.06906202582377Z" fill="#9a80a0" stroke="#9a80a0"/><path d="M-60.85288887271166,313.9948140175559L45.6670051341285,492.06906202582377L45.101946119436164,265.71630508145415Z" fill="#a180a7" stroke="#a180a7"/><path d="M45.101946119436164,265.71630508145415L45.6670051341285,492.06906202582377L264.44696359611135,313.9388843475904Z" fill="#b28db8" stroke="#b28db8"/><path d="M264.44696359611135,313.9388843475904L45.6670051341285,492.06906202582377L346.1053438879126,487.923808192588Z" fill="#bf9ec6" stroke="#bf9ec6"/><path d="M264.44696359611135,313.9388843475904L346.1053438879126,487.923808192588L487.26776875369194,459.9144057547333Z" fill="#cebad7" stroke="#cebad7"/><path d="M264.44696359611135,313.9388843475904L487.26776875369194,459.9144057547333L535.2871727147235,313.89260041127636Z" fill="#d6c3dd" stroke="#d6c3dd"/><path d="M535.2871727147235,313.89260041127636L487.26776875369194,459.9144057547333L675.2515523809335,278.06455319191844Z" fill="#e5d7ea" stroke="#e5d7ea"/><path d="M675.2515523809335,278.06455319191844L487.26776875369194,459.9144057547333L759.6203714841179,552.7012911229092Z" fill="#ede2f0" stroke="#ede2f0"/><path d="M675.2515523809335,278.06455319191844L759.6203714841179,552.7012911229092L873.9923550712546,360.8286881212792Z" fill="#f7f0f7" stroke="#f7f0f7"/><path d="M873.9923550712546,360.8286881212792L759.6203714841179,552.7012911229092L921.0706001174062,486.17874512291854Z" fill="#faf9f9" stroke="#faf9f9"/><path d="M873.9923550712546,360.8286881212792L921.0706001174062,486.17874512291854L1146.082408136808,323.56023080396784Z" fill="#f2f9f0" stroke="#f2f9f0"/><path d="M1146.082408136808,323.56023080396784L921.0706001174062,486.17874512291854L1138.9730491717082,560.9406986725983Z" fill="#e9f6e6" stroke="#e9f6e6"/><path d="M1146.082408136808,323.56023080396784L1138.9730491717082,560.9406986725983L1294.4662528811655,470.4350022751239Z" fill="#d7efd3" stroke="#d7efd3"/><path d="M1146.082408136808,323.56023080396784L1294.4662528811655,470.4350022751239L1242.723153826136,294.9206695606849Z" fill="#d1eccf" stroke="#d1eccf"/><path d="M1242.723153826136,294.9206695606849L1294.4662528811655,470.4350022751239L1485.0603282366772,335.28118107357506Z" fill="#b9ddba" stroke="#b9ddba"/><path d="M1485.0603282366772,335.28118107357506L1294.4662528811655,470.4350022751239L1483.7133438381445,501.73535832674065Z" fill="#a8d3ad" stroke="#a8d3ad"/><path d="M1485.0603282366772,335.28118107357506L1483.7133438381445,501.73535832674065L1642.465512339713,456.167345481165Z" fill="#93c19f" stroke="#93c19f"/><path d="M1485.0603282366772,335.28118107357506L1642.465512339713,456.167345481165L1703.733122885371,278.0152291416549Z" fill="#8ab598" stroke="#8ab598"/><path d="M1703.733122885371,278.0152291416549L1642.465512339713,456.167345481165L1856.8859366439772,263.2924672753589Z" fill="#80a28e" stroke="#80a28e"/><path d="M1856.8859366439772,263.2924672753589L1642.465512339713,456.167345481165L1963.8859275857326,478.8067252232034Z" fill="#809687" stroke="#809687"/><path d="M1856.8859366439772,263.2924672753589L1963.8859275857326,478.8067252232034L2111.3610421969993,303.735851613847Z" fill="#807f80" stroke="#807f80"/><path d="M2111.3610421969993,303.735851613847L1963.8859275857326,478.8067252232034L2078.250043163832,563.189342669186Z" fill="#80807f" stroke="#80807f"/><path d="M2111.3610421969993,303.735851613847L2078.250043163832,563.189342669186L2120.7619886891653,744.8114882115345Z" fill="#748071" stroke="#748071"/><path d="M2111.3610421969993,303.735851613847L2120.7619886891653,744.8114882115345L2139.883350421258,962.9450890416831Z" fill="#356739" stroke="#356739"/><path d="M-88.44180728772474,442.0825767878902L-158.1618984987684,860.7093592085048L-96.25680909389865,690.0278825526136Z" fill="#47694f" stroke="#47694f"/><path d="M-88.44180728772474,442.0825767878902L-96.25680909389865,690.0278825526136L45.6670051341285,492.06906202582377Z" fill="#8b808e" stroke="#8b808e"/><path d="M45.6670051341285,492.06906202582377L-96.25680909389865,690.0278825526136L122.65718229083664,748.9484624682808Z" fill="#67726f" stroke="#67726f"/><path d="M45.6670051341285,492.06906202582377L122.65718229083664,748.9484624682808L346.1053438879126,487.923808192588Z" fill="#a194a4" stroke="#a194a4"/><path d="M346.1053438879126,487.923808192588L122.65718229083664,748.9484624682808L347.6741528923292,722.3979032452781Z" fill="#83958e" stroke="#83958e"/><path d="M346.1053438879126,487.923808192588L347.6741528923292,722.3979032452781L520.2295298816871,685.1198883993999Z" fill="#9db3a6" stroke="#9db3a6"/><path d="M346.1053438879126,487.923808192588L520.2295298816871,685.1198883993999L487.26776875369194,459.9144057547333Z" fill="#cac7cf" stroke="#cac7cf"/><path d="M487.26776875369194,459.9144057547333L520.2295298816871,685.1198883993999L759.6203714841179,552.7012911229092Z" fill="#d2dbd3" stroke="#d2dbd3"/><path d="M759.6203714841179,552.7012911229092L520.2295298816871,685.1198883993999L732.0593627392525,649.6756280708839Z" fill="#bcdabe" stroke="#bcdabe"/><path d="M759.6203714841179,552.7012911229092L732.0593627392525,649.6756280708839L862.6341669186569,734.1444456866667Z" fill="#bae1bc" stroke="#bae1bc"/><path d="M759.6203714841179,552.7012911229092L862.6341669186569,734.1444456866667L921.0706001174062,486.17874512291854Z" fill="#dbf7d8" stroke="#dbf7d8"/><path d="M921.0706001174062,486.17874512291854L862.6341669186569,734.1444456866667L1098.216818631782,697.6646530227191Z" fill="#baeaba" stroke="#baeaba"/><path d="M921.0706001174062,486.17874512291854L1098.216818631782,697.6646530227191L1138.9730491717082,560.9406986725983Z" fill="#d0f7ca" stroke="#d0f7ca"/><path d="M1138.9730491717082,560.9406986725983L1098.216818631782,697.6646530227191L1322.4925109866983,720.1799486406928Z" fill="#93da93" stroke="#93da93"/><path d="M1138.9730491717082,560.9406986725983L1322.4925109866983,720.1799486406928L1294.4662528811655,470.4350022751239Z" fill="#b0e9ab" stroke="#b0e9ab"/><path d="M1294.4662528811655,470.4350022751239L1322.4925109866983,720.1799486406928L1457.1216378327492,656.4869455205471Z" fill="#88d38a" stroke="#88d38a"/><path d="M1294.4662528811655,470.4350022751239L1457.1216378327492,656.4869455205471L1483.7133438381445,501.73535832674065Z" fill="#9cd49e" stroke="#9cd49e"/><path d="M1483.7133438381445,501.73535832674065L1457.1216378327492,656.4869455205471L1641.960731215907,660.3122156101955Z" fill="#6dbc77" stroke="#6dbc77"/><path d="M1483.7133438381445,501.73535832674065L1641.960731215907,660.3122156101955L1642.465512339713,456.167345481165Z" fill="#7fb98b" stroke="#7fb98b"/><path d="M1642.465512339713,456.167345481165L1641.960731215907,660.3122156101955L1963.8859275857326,478.8067252232034Z" fill="#76a180" stroke="#76a180"/><path d="M1963.8859275857326,478.8067252232034L1641.960731215907,660.3122156101955L1856.1621936338086,750.0907763747945Z" fill="#4b8a53" stroke="#4b8a53"/><path d="M1963.8859275857326,478.8067252232034L1856.1621936338086,750.0907763747945L2078.250043163832,563.189342669186Z" fill="#5d7d5a" stroke="#5d7d5a"/><path d="M2078.250043163832,563.189342669186L1856.1621936338086,750.0907763747945L2120.7619886891653,744.8114882115345Z" fill="#2e6135" stroke="#2e6135"/><path d="M-96.25680909389865,690.0278825526136L-158.1618984987684,860.7093592085048L57.795513032257595,909.7218730813353Z" fill="#1a2f30" stroke="#1a2f30"/><path d="M-96.25680909389865,690.0278825526136L57.795513032257595,909.7218730813353L122.65718229083664,748.9484624682808Z" fill="#304045" stroke="#304045"/><path d="M122.65718229083664,748.9484624682808L57.795513032257595,909.7218730813353L290.01039692855545,940.0197253211289Z" fill="#39314b" stroke="#39314b"/><path d="M122.65718229083664,748.9484624682808L290.01039692855545,940.0197253211289L347.6741528923292,722.3979032452781Z" fill="#4a5a62" stroke="#4a5a62"/><path d="M347.6741528923292,722.3979032452781L290.01039692855545,940.0197253211289L448.9339444789442,951.1359379618441Z" fill="#4e5663" stroke="#4e5663"/><path d="M347.6741528923292,722.3979032452781L448.9339444789442,951.1359379618441L520.2295298816871,685.1198883993999Z" fill="#62817a" stroke="#62817a"/><path d="M520.2295298816871,685.1198883993999L448.9339444789442,951.1359379618441L657.0819738648238,959.3471332005114Z" fill="#637376" stroke="#637376"/><path d="M520.2295298816871,685.1198883993999L657.0819738648238,959.3471332005114L732.0593627392525,649.6756280708839Z" fill="#7ca58e" stroke="#7ca58e"/><path d="M732.0593627392525,649.6756280708839L657.0819738648238,959.3471332005114L862.6341669186569,734.1444456866667Z" fill="#82ad92" stroke="#82ad92"/><path d="M862.6341669186569,734.1444456866667L657.0819738648238,959.3471332005114L921.1691302506906,838.1335322469516Z" fill="#799b89" stroke="#799b89"/><path d="M862.6341669186569,734.1444456866667L921.1691302506906,838.1335322469516L1098.216818631782,697.6646530227191Z" fill="#85c093" stroke="#85c093"/><path d="M1098.216818631782,697.6646530227191L921.1691302506906,838.1335322469516L1091.316300781162,918.4185107712365Z" fill="#72a880" stroke="#72a880"/><path d="M1098.216818631782,697.6646530227191L1091.316300781162,918.4185107712365L1349.8779416225552,840.5533329891701Z" fill="#5d9f6b" stroke="#5d9f6b"/><path d="M1098.216818631782,697.6646530227191L1349.8779416225552,840.5533329891701L1322.4925109866983,720.1799486406928Z" fill="#5db16a" stroke="#5db16a"/><path d="M1322.4925109866983,720.1799486406928L1349.8779416225552,840.5533329891701L1457.1216378327492,656.4869455205471Z" fill="#49a659" stroke="#49a659"/><path d="M1457.1216378327492,656.4869455205471L1349.8779416225552,840.5533329891701L1513.3950663858934,865.8890821289411Z" fill="#2f8b45" stroke="#2f8b45"/><path d="M1457.1216378327492,656.4869455205471L1513.3950663858934,865.8890821289411L1641.960731215907,660.3122156101955Z" fill="#309248" stroke="#309248"/><path d="M1641.960731215907,660.3122156101955L1513.3950663858934,865.8890821289411L1651.6534779108997,848.5176047202688Z" fill="#157133" stroke="#157133"/><path d="M1641.960731215907,660.3122156101955L1651.6534779108997,848.5176047202688L1856.1621936338086,750.0907763747945Z" fill="#146e31" stroke="#146e31"/><path d="M1856.1621936338086,750.0907763747945L1651.6534779108997,848.5176047202688L1869.2705078641175,855.1495513060256Z" fill="#044b1f" stroke="#044b1f"/><path d="M1856.1621936338086,750.0907763747945L1869.2705078641175,855.1495513060256L2120.7619886891653,744.8114882115345Z" fill="#0b401b" stroke="#0b401b"/><path d="M2120.7619886891653,744.8114882115345L1869.2705078641175,855.1495513060256L2139.883350421258,962.9450890416831Z" fill="#00220f" stroke="#00220f"/><path d="M-158.1618984987684,860.7093592085048L-113.61429937853472,1105.7670074187104L57.795513032257595,909.7218730813353Z" fill="#15001a" stroke="#15001a"/><path d="M57.795513032257595,909.7218730813353L-113.61429937853472,1105.7670074187104L114.05559119871515,1040.1638891555717Z" fill="#230329" stroke="#230329"/><path d="M57.795513032257595,909.7218730813353L114.05559119871515,1040.1638891555717L290.01039692855545,940.0197253211289Z" fill="#38133e" stroke="#38133e"/><path d="M290.01039692855545,940.0197253211289L114.05559119871515,1040.1638891555717L316.4161773913413,1124.3207354828785Z" fill="#422249" stroke="#422249"/><path d="M290.01039692855545,940.0197253211289L316.4161773913413,1124.3207354828785L448.9339444789442,951.1359379618441Z" fill="#4d3956" stroke="#4d3956"/><path d="M448.9339444789442,951.1359379618441L316.4161773913413,1124.3207354828785L476.63402686818836,1079.1757260136567Z" fill="#54425c" stroke="#54425c"/><path d="M448.9339444789442,951.1359379618441L476.63402686818836,1079.1757260136567L657.0819738648238,959.3471332005114Z" fill="#625368" stroke="#625368"/><path d="M657.0819738648238,959.3471332005114L476.63402686818836,1079.1757260136567L743.8289000946529,1118.3650200136176Z" fill="#6c616f" stroke="#6c616f"/><path d="M657.0819738648238,959.3471332005114L743.8289000946529,1118.3650200136176L933.2688306014717,1057.1247686034399Z" fill="#777278" stroke="#777278"/><path d="M657.0819738648238,959.3471332005114L933.2688306014717,1057.1247686034399L921.1691302506906,838.1335322469516Z" fill="#7a787a" stroke="#7a787a"/><path d="M921.1691302506906,838.1335322469516L933.2688306014717,1057.1247686034399L1091.316300781162,918.4185107712365Z" fill="#727d70" stroke="#727d70"/><path d="M1091.316300781162,918.4185107712365L933.2688306014717,1057.1247686034399L1159.7595239509722,1153.7840781234934Z" fill="#6b7768" stroke="#6b7768"/><path d="M1091.316300781162,918.4185107712365L1159.7595239509722,1153.7840781234934L1263.0942312724528,1077.0888634206121Z" fill="#5b7158" stroke="#5b7158"/><path d="M1091.316300781162,918.4185107712365L1263.0942312724528,1077.0888634206121L1349.8779416225552,840.5533329891701Z" fill="#506c4e" stroke="#506c4e"/><path d="M1349.8779416225552,840.5533329891701L1263.0942312724528,1077.0888634206121L1484.9766686099085,1088.9000712213299Z" fill="#345b36" stroke="#345b36"/><path d="M1349.8779416225552,840.5533329891701L1484.9766686099085,1088.9000712213299L1513.3950663858934,865.8890821289411Z" fill="#24542b" stroke="#24542b"/><path d="M1513.3950663858934,865.8890821289411L1484.9766686099085,1088.9000712213299L1685.9142525568318,1112.4378068756894Z" fill="#0f3e1d" stroke="#0f3e1d"/><path d="M1513.3950663858934,865.8890821289411L1685.9142525568318,1112.4378068756894L1651.6534779108997,848.5176047202688Z" fill="#0a3618" stroke="#0a3618"/><path d="M1651.6534779108997,848.5176047202688L1685.9142525568318,1112.4378068756894L1869.2705078641175,855.1495513060256Z" fill="#01260f" stroke="#01260f"/><path d="M1869.2705078641175,855.1495513060256L1685.9142525568318,1112.4378068756894L1964.0318210067485,1128.353243047514Z" fill="#001406" stroke="#001406"/><path d="M1869.2705078641175,855.1495513060256L1964.0318210067485,1128.353243047514L2139.883350421258,962.9450890416831Z" fill="#000000" stroke="#000000"/><path d="M2139.883350421258,962.9450890416831L1964.0318210067485,1128.353243047514L2112.1886339540633,1123.6927802940168Z" fill="#000000" stroke="#000000"/><path d="M-113.61429937853472,1105.7670074187104L316.4161773913413,1124.3207354828785L114.05559119871515,1040.1638891555717Z" fill="#310d37" stroke="#310d37"/><path d="M316.4161773913413,1124.3207354828785L1159.7595239509722,1153.7840781234934L743.8289000946529,1118.3650200136176Z" fill="#766e76" stroke="#766e76"/><path d="M316.4161773913413,1124.3207354828785L743.8289000946529,1118.3650200136176L476.63402686818836,1079.1757260136567Z" fill="#605167" stroke="#605167"/><path d="M743.8289000946529,1118.3650200136176L1159.7595239509722,1153.7840781234934L933.2688306014717,1057.1247686034399Z" fill="#757a74" stroke="#757a74"/><path d="M1159.7595239509722,1153.7840781234934L2112.1886339540633,1123.6927802940168L1964.0318210067485,1128.353243047514Z" fill="#00220e" stroke="#00220e"/><path d="M1159.7595239509722,1153.7840781234934L1964.0318210067485,1128.353243047514L1685.9142525568318,1112.4378068756894Z" fill="#0b3719" stroke="#0b3719"/><path d="M1159.7595239509722,1153.7840781234934L1685.9142525568318,1112.4378068756894L1484.9766686099085,1088.9000712213299Z" fill="#25502b" stroke="#25502b"/><path d="M1159.7595239509722,1153.7840781234934L1484.9766686099085,1088.9000712213299L1263.0942312724528,1077.0888634206121Z" fill="#426342" stroke="#426342"/></g></svg>